<?xml version="1.0" standalone="no"?>
<!DOCTYPE svg PUBLIC "-//W3C//DTD SVG 20010904//EN"
 "http://www.w3.org/TR/2001/REC-SVG-20010904/DTD/svg10.dtd">
<svg version="1.0" xmlns="http://www.w3.org/2000/svg"
 width="512.000000pt" height="512.000000pt" viewBox="0 0 512.000000 512.000000"
 preserveAspectRatio="xMidYMid meet">
<metadata>
Created by potrace 1.16, written by Peter Selinger 2001-2019
</metadata>
<g transform="translate(0.000000,512.000000) scale(0.100000,-0.100000)"
fill="#000000" stroke="none">
<path d="M2345 4584 c-235 -25 -453 -87 -660 -188 -444 -215 -741 -508 -959
-946 -87 -175 -148 -354 -178 -521 -20 -106 -23 -159 -23 -369 0 -213 3 -262
24 -375 85 -473 363 -929 751 -1232 232 -181 556 -333 820 -387 346 -70 746
-51 1048 50 129 43 354 151 477 229 252 159 500 415 651 672 123 209 221 464
255 668 41 241 36 569 -12 807 -52 260 -223 617 -401 835 -200 248 -440 434
-738 576 -275 131 -483 178 -810 182 -113 2 -223 1 -245 -1z m-667 -906 c7 -7
12 -31 12 -54 0 -41 0 -42 47 -53 66 -17 103 -39 103 -60 0 -29 -29 -91 -45
-98 -8 -3 -33 2 -55 11 -59 23 -145 21 -170 -4 -46 -46 -20 -81 105 -140 113
-55 163 -100 183 -169 15 -48 15 -75 1 -126 -13 -49 -96 -133 -139 -142 -29
-5 -30 -8 -30 -57 0 -63 -11 -76 -65 -76 -53 0 -65 13 -65 72 0 44 -2 48 -25
48 -36 0 -133 39 -144 57 -11 20 12 93 36 110 12 10 24 8 57 -9 30 -16 59 -22
109 -23 63 0 71 2 93 28 50 58 21 98 -121 166 -71 35 -111 61 -128 83 -27 36
-47 89 -47 122 0 75 57 158 130 191 38 17 40 20 40 65 0 57 12 70 65 70 23 0
46 -5 53 -12z m827 -899 c3 -4 8 -22 11 -41 11 -67 9 -68 -315 -68 -210 0
-290 3 -299 12 -17 17 -15 74 4 93 14 14 50 16 304 13 159 -2 291 -6 295 -9z"/>
</g>
</svg>
